HIERARCHY
ROOT Hips
{
	OFFSET -0.001795 -0.223333 0.028219
	CHANNELS 6 Xposition Yposition Zposition Zrotation Yrotation Xrotation 
	JOINT LeftUpLeg
	{
		OFFSET 0.069520 -0.091406 -0.006815
		CHANNELS 3 Zrotation Yrotation Xrotation
		JOINT LeftLeg
		{
			OFFSET 0.034277 -0.375199 -0.004496
			CHANNELS 3 Zrotation Yrotation Xrotation
			JOINT LeftFoot
			{
				OFFSET -0.013596 -0.397961 -0.043693
				CHANNELS 3 Zrotation Yrotation Xrotation
				JOINT LeftToe
				{
					OFFSET 0.026358 -0.055791 0.119288
					CHANNELS 3 Zrotation Yrotation Xrotation
					End Site
					{
						OFFSET 0.000000 0.000000 0.000000
					}
				}
			}
		}
	}
	JOINT RightUpLeg
	{
		OFFSET -0.067670 -0.090522 -0.004320
		CHANNELS 3 Zrotation Yrotation Xrotation
		JOINT RightLeg
		{
			OFFSET -0.038290 -0.382569 -0.008850
			CHANNELS 3 Zrotation Yrotation Xrotation
			JOINT RightFoot
			{
				OFFSET 0.015774 -0.398415 -0.042312
				CHANNELS 3 Zrotation Yrotation Xrotation
				JOINT RightToe
				{
					OFFSET -0.025372 -0.048144 0.123348
					CHANNELS 3 Zrotation Yrotation Xrotation
					End Site
					{
						OFFSET 0.000000 0.000000 0.000000
					}
				}
			}
		}
	}
	JOINT Spine
	{
		OFFSET -0.002533 0.108963 -0.026696
		CHANNELS 3 Zrotation Yrotation Xrotation
		JOINT Spine1
		{
			OFFSET 0.005487 0.135180 0.001092
			CHANNELS 3 Zrotation Yrotation Xrotation
			JOINT Spine2
			{
				OFFSET 0.001457 0.052922 0.025425
				CHANNELS 3 Zrotation Yrotation Xrotation
				JOINT Neck
				{
					OFFSET -0.002778 0.213870 -0.042857
					CHANNELS 3 Zrotation Yrotation Xrotation
					JOINT Head
					{
						OFFSET 0.005152 0.064970 0.051349
						CHANNELS 3 Zrotation Yrotation Xrotation
						End Site
						{
							OFFSET 0.000000 0.000000 0.000000
						}
					}
				}
				JOINT LeftShoulder
				{
					OFFSET 0.078845 0.121749 -0.034090
					CHANNELS 3 Zrotation Yrotation Xrotation
					JOINT LeftArm
					{
						OFFSET 0.090977 0.030469 -0.008868
						CHANNELS 3 Zrotation Yrotation Xrotation
						JOINT LeftForeArm
						{
							OFFSET 0.259612 -0.012772 -0.027456
							CHANNELS 3 Zrotation Yrotation Xrotation
							JOINT LeftHand
							{
								OFFSET 0.249234 0.008986 -0.001171
								CHANNELS 3 Zrotation Yrotation Xrotation
								End Site
								{
									OFFSET 0.000000 0.000000 0.000000
								}
							}
						}
					}
				}
				JOINT RightShoulder
				{
					OFFSET -0.081759 0.118833 -0.038615
					CHANNELS 3 Zrotation Yrotation Xrotation
					JOINT RightArm
					{
						OFFSET -0.096012 0.032551 -0.009143
						CHANNELS 3 Zrotation Yrotation Xrotation
						JOINT RightForeArm
						{
							OFFSET -0.253742 -0.013329 -0.021401
							CHANNELS 3 Zrotation Yrotation Xrotation
							JOINT RightHand
							{
								OFFSET -0.255298 0.007772 -0.005559
								CHANNELS 3 Zrotation Yrotation Xrotation
								End Site
								{
									OFFSET 0.000000 0.000000 0.000000
								}
							}
						}
					}
				}
			}
		}
	}
}
MOTION
Frames: 8
Frame Time: 0.050000
0.002099 0.862046 -0.005700 0.622904 -10.737702 -5.052191 17.207862 1.068732 -6.746092 -8.464678 3.242758 27.303072 5.190250 10.055981 -6.734187 0.000000 0.000000 0.000000 -17.220960 0.264638 -13.569733 15.119011 -2.953058 29.404902 -3.273986 -2.025941 -10.659319 0.000000 0.000000 0.000000 7.148622 -1.570738 19.955961 -7.328984 2.188173 -28.975692 -4.453167 8.592588 22.011738 14.544294 -4.091845 -36.749266 0.000000 0.000000 0.000000 -24.478516 -11.673897 4.500763 -36.797146 -10.256897 -2.747033 -15.791566 -28.118360 4.970293 0.000000 0.000000 0.000000 29.569068 -2.511958 -2.794047 49.264347 11.926491 -2.294313 16.116585 26.494376 4.870685 0.000000 0.000000 0.000000 
0.001975 0.862558 -0.005849 0.655372 -10.451607 -4.842345 17.110096 1.044250 -6.948864 -8.381127 3.154493 27.064024 5.135178 9.911845 -6.676168 0.000000 0.000000 0.000000 -17.366108 0.252351 -13.354833 15.313759 -3.027201 28.724918 -3.325297 -2.226101 -10.682244 0.000000 0.000000 0.000000 7.337248 -1.613219 19.912638 -7.616429 2.251585 -28.939653 -4.352362 8.599708 22.130059 14.185933 -3.838722 -37.071867 0.000000 0.000000 0.000000 -24.485953 -11.545509 4.373930 -37.130666 -10.132247 -2.795958 -15.689227 -27.809949 4.887359 0.000000 0.000000 0.000000 29.621463 -2.683392 -2.843491 49.028088 11.931738 -2.320368 16.206977 25.939091 4.780798 0.000000 0.000000 0.000000 
0.001866 0.863039 -0.005906 0.819529 -10.327123 -4.789365 17.029810 1.036276 -7.120188 -8.534801 3.208711 27.099888 5.069837 9.791107 -6.360367 0.000000 0.000000 0.000000 -17.608124 0.236960 -13.314897 15.426262 -3.070780 28.530245 -3.313994 -2.292566 -10.570247 0.000000 0.000000 0.000000 7.309751 -1.621512 20.023451 -7.760095 2.283175 -28.939935 -4.377618 8.607571 22.388601 13.733073 -3.619262 -37.157598 0.000000 0.000000 0.000000 -24.543964 -11.228464 4.175846 -37.153465 -10.081131 -2.830353 -15.510831 -27.723453 4.827369 0.000000 0.000000 0.000000 29.924140 -2.771115 -2.896316 48.840171 11.545258 -2.511541 16.205126 25.457044 4.680957 0.000000 0.000000 0.000000 
0.001684 0.863775 -0.005579 0.813279 -10.051358 -4.598418 16.928119 1.022812 -7.479117 -8.347891 3.117778 27.226341 4.991875 9.629171 -6.064167 0.000000 0.000000 0.000000 -17.495521 0.231844 -13.287136 15.258263 -3.043186 28.302014 -3.358902 -2.545904 -10.488463 0.000000 0.000000 0.000000 7.364570 -1.635534 19.857749 -7.870656 2.308674 -28.824022 -4.261651 8.753791 22.641144 13.265758 -3.406338 -36.958645 0.000000 0.000000 0.000000 -24.643731 -11.045385 3.978085 -37.258543 -9.777861 -2.911402 -15.300099 -27.601000 4.743156 0.000000 0.000000 0.000000 30.529214 -2.909800 -2.925284 48.657885 11.336442 -2.658187 15.391709 24.661518 4.350922 0.000000 0.000000 0.000000 
0.001316 0.863959 -0.004625 0.864685 -9.803006 -4.652515 16.956973 1.016535 -7.542817 -8.417799 3.131556 27.386600 4.886173 9.383384 -5.889176 0.000000 0.000000 0.000000 -17.496966 0.220127 -13.062439 15.172559 -3.044096 28.254831 -3.416956 -2.708297 -10.579780 0.000000 0.000000 0.000000 7.384836 -1.650766 19.911776 -8.154019 2.379839 -28.515120 -4.279192 8.690494 22.505503 13.037413 -3.346171 -36.614357 0.000000 0.000000 0.000000 -24.678303 -10.608454 3.676284 -37.394425 -9.238703 -3.055909 -15.398018 -27.704624 4.785657 0.000000 0.000000 0.000000 30.695019 -3.087921 -3.023759 48.646601 10.644274 -2.936697 15.356886 24.300023 4.275212 0.000000 0.000000 0.000000 
0.000739 0.864124 -0.003172 0.937170 -9.318972 -4.923528 16.746583 0.945458 -7.110154 -8.127317 2.927517 27.055855 4.769960 9.036784 -6.108518 0.000000 0.000000 0.000000 -17.269637 0.210782 -12.387860 14.658377 -2.926724 28.078881 -3.593392 -3.019988 -11.044470 0.000000 0.000000 0.000000 7.460535 -1.682266 20.014510 -8.252719 2.405337 -28.603808 -4.291831 8.803069 22.815804 12.592735 -3.158898 -36.282051 0.000000 0.000000 0.000000 -24.915729 -10.280083 3.347186 -37.478422 -8.875458 -3.147890 -15.682948 -27.720879 4.845271 0.000000 0.000000 0.000000 31.109168 -3.743105 -3.339271 48.705136 10.324313 -3.154656 15.510419 24.017741 4.280934 0.000000 0.000000 0.000000 
0.000206 0.863771 -0.001821 0.794721 -8.670082 -5.059953 16.790653 0.913062 -7.061167 -7.813727 2.731341 27.110065 4.616281 8.544869 -6.436867 0.000000 0.000000 0.000000 -16.932883 0.190697 -11.954595 14.363120 -2.916027 28.172264 -3.783172 -3.534796 -11.380818 0.000000 0.000000 0.000000 7.575869 -1.729503 20.083580 -8.376571 2.437435 -28.643931 -4.320954 8.658558 22.883978 12.304244 -3.045558 -35.973065 0.000000 0.000000 0.000000 -24.999851 -9.799428 2.963980 -37.388671 -8.389970 -3.255570 -16.170975 -27.662789 4.943316 0.000000 0.000000 0.000000 31.159189 -4.168932 -3.531017 49.171571 9.664482 -3.463704 15.499656 24.020847 4.304072 0.000000 0.000000 0.000000 
-0.000055 0.863580 -0.001062 0.869143 -8.379769 -5.300647 16.885745 0.915234 -7.068044 -7.993869 2.797494 27.472854 4.474417 8.198315 -6.295634 0.000000 0.000000 0.000000 -16.854652 0.171670 -11.801527 14.083459 -2.876869 28.614212 -3.854381 -3.749168 -11.488714 0.000000 0.000000 0.000000 7.484397 -1.745961 20.427533 -8.448077 2.451543 -28.841533 -4.330270 8.686038 23.030076 12.266027 -2.988632 -36.082885 0.000000 0.000000 0.000000 -24.859541 -9.612177 2.787146 -37.620920 -8.068205 -3.356937 -16.417356 -27.768590 5.017624 0.000000 0.000000 0.000000 31.109818 -4.869607 -3.924291 49.579814 9.368103 -3.628723 15.725416 24.349854 4.448910 0.000000 0.000000 0.000000 
